<?xml version="1.0" encoding="utf-8"?>
<!-- Generator: Adobe Illustrator 16.0.0, SVG Export Plug-In . SVG Version: 6.00 Build 0)  -->
<!DOCTYPE svg PUBLIC "-//W3C//DTD SVG 1.1//EN" "http://www.w3.org/Graphics/SVG/1.1/DTD/svg11.dtd">
<svg version="1.1" id="Layer_1" xmlns="http://www.w3.org/2000/svg" xmlns:xlink="http://www.w3.org/1999/xlink" x="0px" y="0px"
	 width="66px" height="66px" viewBox="0 0 66 66" enable-background="new 0 0 66 66" xml:space="preserve">
<g>
	<polygon points="54,64.015 12,64.015 12,51.563 15,42.015 51,42.015 54,44.535 	"/>
	<g>
		<g>
			<g>
				<polyline fill="#773515" points="33,2.015 33,20.015 15,20.015 				"/>
				<polyline fill="#632309" points="31,4.015 31,18.015 17,18.015 				"/>
				<polyline fill="#894121" points="29.037,8.227 29.285,16.015 21,16.015 				"/>
			</g>
			<g>
				<rect x="33" y="2.015" fill="#773515" width="18" height="18"/>
				<polyline fill="#8E4829" points="33,20.015 33,2.015 51,2.015 				"/>
				<polygon fill="#9E683C" points="42.079,11.138 51,2.015 33,2.015 33,1.985 				"/>
				<rect x="35" y="4.015" fill="#773515" width="14" height="14"/>
				<polyline fill="#632309" points="49,4.015 49,18.015 35,18.015 				"/>
				<polyline fill="#894121" points="37,13.015 37,6.015 44,6.015 				"/>
			</g>
		</g>
		<g>
			<g>
				<rect x="15" y="20.015" fill="#773515" width="18" height="18"/>
				<polyline fill="#8E4829" points="15,38.015 15,20.015 33,20.015 				"/>
				<polygon fill="#9E683C" points="23.99,29.258 33.051,20.015 15,20.015 15,20.226 				"/>
				<rect x="17" y="22.015" fill="#773515" width="14" height="14"/>
				<polyline fill="#632309" points="31,22.015 31,36.015 17,36.015 				"/>
				<polyline fill="#894121" points="18,32.015 18,24.015 26,24.015 				"/>
			</g>
			<g>
				<rect x="33" y="20.015" fill="#773515" width="18" height="18"/>
				<polyline fill="#8E4829" points="33,38.015 33,20.015 51,20.015 				"/>
				<polygon fill="#9E683C" points="42.079,29.258 51,20.015 33,20.015 33,20.226 				"/>
				<rect x="35" y="22.015" fill="#773515" width="14" height="14"/>
				<polyline fill="#632309" points="49,22.015 49,36.015 35,36.015 				"/>
				<polyline fill="#894121" points="37,32.015 37,24.015 44,24.015 				"/>
			</g>
		</g>
		<g>
			<g>
				<rect x="15" y="38.015" fill="#773515" width="18" height="19"/>
				<polyline fill="#8E4829" points="15,57.015 15,38.015 33,38.015 				"/>
				<polygon fill="#9E683C" points="23.99,47.378 33.051,38.015 15,38.015 15,38.466 				"/>
				<rect x="17" y="40.015" fill="#773515" width="14" height="15"/>
				<polyline fill="#632309" points="31,40.015 31,55.015 17,55.015 				"/>
				<polyline fill="#894121" points="18,50.015 18,42.015 26,42.015 				"/>
			</g>
			<g>
				<rect x="33" y="38.015" fill="#773515" width="18" height="19"/>
				<polyline fill="#8E4829" points="33,57.015 33,38.015 51,38.015 				"/>
				<polygon fill="#9E683C" points="42.079,47.378 51,38.015 33,38.015 33,38.466 				"/>
				<rect x="35" y="40.015" fill="#773515" width="14" height="15"/>
				<polyline fill="#632309" points="49,40.015 49,55.015 35,55.015 				"/>
				<polyline fill="#894121" points="37,50.015 37,42.015 44,42.015 				"/>
			</g>
		</g>
	</g>
	<polygon fill="#FCE577" points="54,64.015 12,64.015 12,51.959 19.034,51.137 28.147,46.015 54,46.015 	"/>
	<polygon fill="#FFB31A" points="54,64.015 12,64.015 25.979,59.847 19.034,51.112 28.147,46.015 54,46.015 	"/>
	<polygon fill="#551B7A" points="54,64.015 12,64.015 12,53.819 25.669,59.445 32.862,46.015 54,46.015 	"/>
	<polyline fill="#360B60" points="25.669,59.445 32.862,46.015 54,46.015 54,64.015 	"/>
	<rect x="51" y="49.015" fill="#C675CC" width="1" height="14"/>
	<polygon fill="#C675CC" points="31.98,49.015 31.516,50.015 52,50.015 52,49.015 	"/>
</g>
</svg>
