<?xml version="1.0" encoding="utf-8"?>
<!-- Generator: Adobe Illustrator 16.0.0, SVG Export Plug-In . SVG Version: 6.00 Build 0)  -->
<!DOCTYPE svg PUBLIC "-//W3C//DTD SVG 1.1//EN" "http://www.w3.org/Graphics/SVG/1.1/DTD/svg11.dtd">
<svg version="1.1" id="Layer_1" xmlns="http://www.w3.org/2000/svg" xmlns:xlink="http://www.w3.org/1999/xlink" x="0px" y="0px"
	 width="66px" height="66px" viewBox="0 0 66 66" enable-background="new 0 0 66 66" xml:space="preserve">
<g>
	<linearGradient id="SVGID_1_" gradientUnits="userSpaceOnUse" x1="48.1885" y1="89.167" x2="48.1885" y2="13.0627">
		<stop  offset="0" style="stop-color:#29D3DA"/>
		<stop  offset="0.5188" style="stop-color:#0077FF"/>
		<stop  offset="0.9991" style="stop-color:#064093"/>
		<stop  offset="1" style="stop-color:#084698"/>
	</linearGradient>
	<polygon fill="url(#SVGID_1_)" points="35.131,34.849 35.131,65 61.246,49.923 61.246,19.771 	"/>
	<linearGradient id="SVGID_2_" gradientUnits="userSpaceOnUse" x1="25.0615" y1="19.2588" x2="49.1868" y2="43.384">
		<stop  offset="0" style="stop-color:#29D3DA"/>
		<stop  offset="0.5188" style="stop-color:#0077FF"/>
		<stop  offset="0.9991" style="stop-color:#064093"/>
		<stop  offset="1" style="stop-color:#084698"/>
	</linearGradient>
	<polyline fill="url(#SVGID_2_)" points="61.246,19.771 35.131,34.849 35.131,65 	"/>
	<linearGradient id="SVGID_3_" gradientUnits="userSpaceOnUse" x1="33.001" y1="-17.5" x2="33.001" y2="39.728">
		<stop  offset="0.0124" style="stop-color:#E0B386"/>
		<stop  offset="0.5188" style="stop-color:#DA498C"/>
		<stop  offset="1" style="stop-color:#961484"/>
	</linearGradient>
	<polygon fill="url(#SVGID_3_)" points="59.117,16.077 33,1 6.885,16.077 6.885,16.082 33,31.16 59.117,16.082 	"/>
	<linearGradient id="SVGID_4_" gradientUnits="userSpaceOnUse" x1="33.001" y1="6.8252" x2="33.001" y2="35.4447">
		<stop  offset="0.0124" style="stop-color:#E0B386"/>
		<stop  offset="0.5188" style="stop-color:#DA498C"/>
		<stop  offset="1" style="stop-color:#961484"/>
	</linearGradient>
	<polyline fill="url(#SVGID_4_)" points="6.885,16.077 6.885,16.082 33,31.16 59.117,16.082 59.117,16.077 	"/>
	<linearGradient id="SVGID_5_" gradientUnits="userSpaceOnUse" x1="17.8125" y1="89.167" x2="17.8125" y2="13.0627">
		<stop  offset="0" style="stop-color:#29D3DA"/>
		<stop  offset="0.5188" style="stop-color:#0077FF"/>
		<stop  offset="0.9991" style="stop-color:#064093"/>
		<stop  offset="1" style="stop-color:#084698"/>
	</linearGradient>
	<polygon fill="url(#SVGID_5_)" points="30.871,34.849 4.754,19.771 4.754,49.923 30.871,65 	"/>
	<linearGradient id="SVGID_6_" gradientUnits="userSpaceOnUse" x1="42.1079" y1="21.4336" x2="14.8572" y2="44.9342">
		<stop  offset="0" style="stop-color:#29D3DA"/>
		<stop  offset="0.5188" style="stop-color:#0077FF"/>
		<stop  offset="0.9991" style="stop-color:#064093"/>
		<stop  offset="1" style="stop-color:#084698"/>
	</linearGradient>
	<polyline fill="url(#SVGID_6_)" points="30.871,65 30.871,34.849 4.754,19.771 	"/>
</g>
</svg>
