<?xml version="1.0" encoding="utf-8"?>
<!-- Generator: Adobe Illustrator 16.0.0, SVG Export Plug-In . SVG Version: 6.00 Build 0)  -->
<!DOCTYPE svg PUBLIC "-//W3C//DTD SVG 1.1//EN" "http://www.w3.org/Graphics/SVG/1.1/DTD/svg11.dtd">
<svg version="1.1" id="Layer_1" xmlns="http://www.w3.org/2000/svg" xmlns:xlink="http://www.w3.org/1999/xlink" x="0px" y="0px"
	 width="500px" height="500px" viewBox="0 0 500 500" enable-background="new 0 0 500 500" xml:space="preserve">
<g>
	<g>
		<path fill="#323738" d="M416.123,44.826l-48.41-27.73c-2.117-1.545-4.389-2.848-6.8-3.902l-0.715-0.406l-0.029,0.06
			c-13.025-5.296-29.849-3.378-48.197,7.213l-149.105,86.076c-41,23.671-74.542,81.776-74.542,129.118v172.16
			c0,23.084,8.017,39.458,20.946,47.494l-0.125,0.225l53.803,30.481L193.2,432.94l118.772-68.567
			c40.991-23.667,74.54-81.773,74.54-129.119V96.379L416.123,44.826z"/>
		<path fill="#252B2D" d="M416.123,44.826l-51.818-12.154c-2.115-1.542-12.699-1.504-15.111-2.555l-3.842-1.539l-6.918-1.283
			C325.408,22,330.32,9.469,311.972,20.061l-149.105,86.076c-41,23.671-74.542,81.776-74.542,129.118v172.16
			c0,23.084,8.017,39.458,20.946,47.494l-0.125,0.225l53.803,30.481L193.2,432.94l118.772-68.567
			c40.991-23.667,74.54-81.773,74.54-129.119V96.379L416.123,44.826z"/>
		<path fill="#090C0C" d="M91.164,210.451c-1.807,8.43-2.84,16.779-2.84,24.803v172.16c0,23.084,8.017,39.458,20.946,47.494
			l-0.125,0.225l53.803,30.481L193.2,432.94l118.772-68.567c6.961-4.02,13.695-9.101,20.097-14.898L91.164,210.451z"/>
		<g>
			<path fill="#3B4142" d="M214.109,135.852c-41,23.67-74.549,81.776-74.549,129.117v172.16c0,47.343,33.549,66.709,74.549,43.039
				l149.097-86.076c41-23.672,74.549-81.773,74.549-129.123V92.813c0-47.346-33.549-66.705-74.549-43.038L214.109,135.852z"/>
			<path opacity="0.2" fill="#383E3F" d="M437.755,92.813c0-47.346-33.549-66.705-74.549-43.038l-149.097,86.077
				c-41,23.67-74.549,81.776-74.549,129.117v172.16c0,47.343,33.549,66.709,74.549,43.039"/>
			<path fill="#3B4142" d="M140.589,252.033l296.148-170.98c0.472-3.584,0.768-7.127,0.896-10.627l-297.945,172.02
				C139.818,245.794,140.12,248.991,140.589,252.033z"/>
			<path fill="#4F5759" d="M180.994,493.344h-0.007c-27.031,0-44.495-22.067-44.495-56.215v-172.16
				c0-48.44,34.125-107.56,76.075-131.776l149.105-86.08c12.088-6.977,23.747-10.51,34.655-10.51
				c27.03,0,44.502,22.067,44.502,56.21v172.156c0,48.448-34.132,107.565-76.082,131.782l-149.105,86.08
				C203.555,489.804,191.902,493.344,180.994,493.344z M396.328,42.75c-9.816,0-20.443,3.26-31.58,9.684l-149.105,86.08
				c-40.254,23.247-73.007,79.97-73.007,126.455v172.16c0,30.881,14.692,50.063,38.352,50.063h0.007
				c9.816,0,20.437-3.259,31.573-9.683l149.105-86.08c40.254-23.243,73.007-79.973,73.007-126.46V92.813
				C434.68,61.933,419.988,42.75,396.328,42.75z"/>
		</g>
	</g>
	<g>
		<g>
			<g>
				<path fill="#FF4D8D" d="M198.897,184.144c0.004-3.968,2.807-8.835,6.244-10.815c3.437-1.984,6.247-0.365,6.242,3.603
					c0.004,3.968-2.81,8.836-6.242,10.819C201.704,189.728,198.901,188.108,198.897,184.144z"/>
			</g>
			<g>
				<path fill="#EA2864" d="M205.141,187.75c-3.437,1.977-6.24,0.358-6.244-3.606c0.004-3.968,2.807-8.835,6.244-10.815"/>
			</g>
		</g>
		<g>
			<g>
				<path fill="#F7D011" d="M225.503,168.933c0-3.972,2.807-8.833,6.239-10.816c3.437-1.984,6.247-0.362,6.247,3.606
					c0,3.96-2.81,8.828-6.247,10.813C228.31,174.52,225.503,172.897,225.503,168.933z"/>
			</g>
			<g>
				<path fill="#F4B414" d="M231.743,172.536c-3.433,1.983-6.239,0.361-6.239-3.603c0-3.972,2.807-8.833,6.239-10.816"/>
			</g>
		</g>
		<g>
			<g>
				<path fill="#15EAA8" d="M252.106,153.722c0-3.968,2.81-8.835,6.242-10.82c3.437-1.983,6.244-0.361,6.244,3.607
					c0,3.967-2.81,8.828-6.244,10.812C254.916,159.305,252.106,157.682,252.106,153.722z"/>
			</g>
			<g>
				<path fill="#08C1B3" d="M258.349,157.32c-3.433,1.984-6.242,0.362-6.242-3.599c0-3.968,2.81-8.835,6.242-10.82"/>
			</g>
		</g>
	</g>
	<g>
		<g>
			<path fill="#FFFFFF" d="M276.149,315.209c-1.896,0-3.82-0.479-5.58-1.496l-58.112-33.551c-5.347-3.09-7.176-9.935-4.093-15.281
				c3.089-5.351,9.919-7.184,15.28-4.094l58.109,33.551c5.355,3.09,7.184,9.935,4.093,15.281
				C283.774,313.207,280.019,315.209,276.149,315.209z"/>
		</g>
		<g>
			<path fill="#FFFFFF" d="M218.041,415.87c-1.896,0-3.817-0.483-5.583-1.497c-5.347-3.091-7.176-9.931-4.093-15.277l58.109-100.661
				c3.089-5.351,9.908-7.188,15.28-4.097c5.355,3.09,7.184,9.927,4.093,15.281l-58.109,100.656
				C225.665,413.867,221.904,415.87,218.041,415.87z"/>
		</g>
		<g>
			<path fill="#FFFFFF" d="M295.55,371.132c-3.868,0-7.622-2.002-9.703-5.594c-3.082-5.348-1.252-12.188,4.102-15.278l77.492-44.733
				c5.354-3.105,12.191-1.254,15.281,4.093c3.082,5.354,1.253,12.191-4.102,15.281l-77.491,44.739
				C299.366,370.653,297.44,371.132,295.55,371.132z"/>
		</g>
	</g>
</g>
</svg>
