<?xml version="1.0" encoding="utf-8"?>
<!-- Generator: Adobe Illustrator 16.0.0, SVG Export Plug-In . SVG Version: 6.00 Build 0)  -->
<!DOCTYPE svg PUBLIC "-//W3C//DTD SVG 1.1//EN" "http://www.w3.org/Graphics/SVG/1.1/DTD/svg11.dtd">
<svg version="1.1" id="Layer_1" xmlns="http://www.w3.org/2000/svg" xmlns:xlink="http://www.w3.org/1999/xlink" x="0px" y="0px"
	 width="66px" height="66px" viewBox="0 0 66 66" enable-background="new 0 0 66 66" xml:space="preserve">
<g>
	<g>
		<polygon fill="#102D35" points="62.845,15.465 49,15.148 49.233,1.852 62.845,1.852 		"/>
		<g>
			<polygon fill="#102D35" points="51.64,22.999 41.7,13.057 49.233,1.852 62.845,15.465 			"/>
			<path fill="#EFA91B" d="M50.22,25.954L38.743,14.477l-17.094,5.617l-10.961,29.42l0.834,0.834l12.635-12.637
				c-0.656-1.738-0.293-3.771,1.105-5.17c1.904-1.904,4.99-1.904,6.893,0c1.904,1.904,1.904,4.99,0.002,6.895
				c-1.398,1.398-3.434,1.76-5.17,1.104L14.351,53.176l0.834,0.834l29.418-10.963L50.22,25.954z"/>
			<path fill="#D88F0E" d="M25.263,32.542c1.904-1.904,4.99-1.904,6.893,0c1.904,1.904,1.904,4.99,0.002,6.895
				c-1.398,1.398-3.434,1.76-5.17,1.104L14.351,53.176l0.834,0.834l29.418-10.963l5.617-17.094L38.743,14.477"/>
			<polyline fill="#BC7400" points="44.603,43.047 50.22,25.954 38.743,14.477 			"/>
			<path fill="#1EA4C4" d="M55.39,26.512c-1.691,1.693-4.436,1.693-6.129,0L38.183,15.436c-1.691-1.691-1.691-4.436,0.002-6.129l0,0
				c1.691-1.691,4.436-1.691,6.127,0L55.39,20.383C57.083,22.077,57.083,24.821,55.39,26.512L55.39,26.512z"/>
			<path fill="#0C7FA3" d="M55.39,26.512L55.39,26.512c-1.691,1.693-4.436,1.693-6.129,0L38.183,15.436
				c-1.691-1.691-1.691-4.436,0.002-6.129l0,0"/>
		</g>
	</g>
	<g>
		<g>
			<path fill="#0F2D35" d="M60.655,64.148h-51.5c-3.309,0-6-2.525-6-5.834s2.691-5.916,6-5.916c0.828,0,1.5,0.713,1.5,1.541
				s-0.672,1.521-1.5,1.521c-1.654,0-3,1.189-3,2.844s1.346,2.844,3,2.844h51.5c0.828,0,1.5,0.672,1.5,1.5
				S61.483,64.148,60.655,64.148z"/>
		</g>
		<circle fill="#0F2D35" cx="10.404" cy="54.065" r="2.083"/>
	</g>
</g>
</svg>
