<?xml version="1.0" encoding="utf-8"?>
<!-- Generator: Adobe Illustrator 16.0.0, SVG Export Plug-In . SVG Version: 6.00 Build 0)  -->
<!DOCTYPE svg PUBLIC "-//W3C//DTD SVG 1.1//EN" "http://www.w3.org/Graphics/SVG/1.1/DTD/svg11.dtd">
<svg version="1.1" id="Layer_1" xmlns="http://www.w3.org/2000/svg" xmlns:xlink="http://www.w3.org/1999/xlink" x="0px" y="0px"
	 width="500px" height="500px" viewBox="0 0 500 500" enable-background="new 0 0 500 500" xml:space="preserve">
<g>
	<polygon fill="#0F9FE8" points="190.949,420.505 7.318,314.483 190.944,49.434 	"/>
	<polygon fill="#0986D3" points="190.949,420.505 111.153,164.604 190.944,49.434 	"/>
	<polygon fill="#0B519E" points="190.949,420.505 374.577,314.483 190.956,49.434 	"/>
	<polygon fill="#0B4B84" points="190.949,420.505 270.747,164.604 190.956,49.434 	"/>
	<g>
		<polygon fill="#37E2D9" points="111.153,164.604 190.944,210.675 190.944,49.434 		"/>
		<polygon fill="#20C2D3" points="190.956,210.675 270.747,164.604 190.956,49.434 		"/>
		<polygon fill="#0DA5D3" points="190.956,210.675 245.83,128.638 190.956,49.434 		"/>
	</g>
	<g>
		<path fill="#0B519E" d="M60.111,344.828c0,0,36.642-129.816,69.505-111.327c25.049,14.098-26.428,136.201-26.428,136.201
			L60.111,344.828z"/>
		<path fill="#0F236B" d="M72.228,340.793l34.812,20.099c11.444-26.854,43.375-115.687,22.576-127.39
			c-1.965-1.1-3.937-1.675-5.906-1.839C96.777,250.926,72.228,340.793,72.228,340.793z"/>
	</g>
	<path fill="#96602F" d="M193.954,54.146c0,1.667-1.347,3.01-3.005,3.01l0,0c-1.661,0-3.007-1.342-3.007-3.01V9.37
		c0-1.66,1.347-3.006,3.007-3.006l0,0c1.659,0,3.005,1.346,3.005,3.006V54.146z"/>
	<path fill="#C17E48" d="M193.34,52.33c1.01,1.319,0.755,3.202-0.568,4.211l0,0c-1.319,1.01-3.202,0.751-4.212-0.567L161.39,20.38
		c-1.01-1.319-0.756-3.206,0.563-4.215l0,0c1.322-1.007,3.209-0.752,4.219,0.571L193.34,52.33z"/>
	<path fill="#77471F" d="M188.56,52.33c-1.01,1.319-0.758,3.202,0.563,4.211l0,0c1.319,1.01,3.206,0.751,4.216-0.567l27.167-35.594
		c1.013-1.319,0.759-3.206-0.565-4.215l0,0c-1.322-1.007-3.201-0.752-4.214,0.571L188.56,52.33z"/>
	<polygon fill="#C9C3AD" points="190.949,420.505 313.367,491.185 497,385.162 374.577,314.483 	"/>
</g>
</svg>
