<?xml version="1.0" encoding="utf-8"?>
<!-- Generator: Adobe Illustrator 16.0.0, SVG Export Plug-In . SVG Version: 6.00 Build 0)  -->
<!DOCTYPE svg PUBLIC "-//W3C//DTD SVG 1.1//EN" "http://www.w3.org/Graphics/SVG/1.1/DTD/svg11.dtd">
<svg version="1.1" id="Layer_1" xmlns="http://www.w3.org/2000/svg" xmlns:xlink="http://www.w3.org/1999/xlink" x="0px" y="0px"
	 width="500px" height="500px" viewBox="0 0 500 500" enable-background="new 0 0 500 500" xml:space="preserve">
<g>
	<g>
		<g>
			<path fill="#DFEDEF" d="M136.157,19.179c1.691,9.413,6.232,17.845,12.741,24.307c-1.047,2.962-1.651,6.136-1.651,9.459
				c0,5.113,1.377,9.897,3.743,14.045c-1.67,2.828-2.692,6.089-2.692,9.616c0,6.656,3.427,12.49,8.601,15.887
				c-0.173,1.028-0.319,2.062-0.319,3.135c0,7.601,4.489,14.106,10.93,17.152c-0.063,0.627-0.189,1.232-0.189,1.874
				c0,10.506,8.521,19.023,19.025,19.023c10.505,0,19.026-8.517,19.026-19.023c0-2.504-0.516-4.885-1.392-7.074
				c0.465,0.031,0.912,0.139,1.392,0.139c7.118,0,13.249-3.954,16.511-9.748c5.852,6.01,14.018,9.748,23.065,9.748
				c17.351,0,31.46-13.725,32.153-30.905c0.654,0.03,1.3,0.1,1.954,0.1c22.141,0,40.606-15.741,44.823-36.641
				c10.34-3.911,18.872-11.475,24.073-21.095H136.157z"/>
		</g>
	</g>
	<g>
		<g>
			<path fill="#33363A" d="M350.763,13.981c-2.877-1.561-6.457-0.48-8.006,2.39c-4.582,8.467-12.024,14.995-20.969,18.376
				c-1.899,0.72-3.296,2.365-3.699,4.359c-3.734,18.484-20.146,31.901-39.034,31.901c-0.284,0-0.565-0.024-0.846-0.043l-0.833-0.049
				c-1.583-0.085-3.106,0.481-4.265,1.543c-1.158,1.065-1.85,2.546-1.911,4.119c-0.577,14.148-12.105,25.235-26.252,25.235
				c-7.147,0-13.833-2.827-18.831-7.963c-1.3-1.331-3.156-1.993-4.998-1.735c-1.847,0.239-3.472,1.338-4.384,2.958
				c-2.332,4.143-6.662,6.721-11.33,6.721h-0.051c-0.327-0.047-0.653-0.085-0.984-0.108c-2.033-0.107-3.979,0.785-5.171,2.427
				c-1.193,1.643-1.458,3.781-0.705,5.667c0.644,1.604,0.969,3.246,0.969,4.877c0,7.232-5.883,13.114-13.118,13.114
				c-7.233,0-13.117-5.882-13.117-13.087c0.007-0.158,0.035-0.315,0.057-0.469l0.103-0.853c0.245-2.482-1.098-4.852-3.352-5.917
				c-4.654-2.205-7.547-6.732-7.547-11.814c0-0.739,0.116-1.447,0.236-2.154c0.39-2.312-0.624-4.634-2.582-5.92
				c-3.716-2.438-5.936-6.531-5.936-10.948c0-2.285,0.628-4.509,1.871-6.612c1.08-1.827,1.097-4.089,0.044-5.932
				c-1.939-3.4-2.965-7.248-2.965-11.117c0-2.504,0.441-5.024,1.313-7.49c0.76-2.154,0.211-4.554-1.409-6.162
				c-5.8-5.759-9.635-13.076-11.087-21.162c-0.581-3.216-3.662-5.328-6.862-4.77c-3.212,0.577-5.347,3.651-4.771,6.862
				c1.674,9.298,5.777,17.815,11.937,24.839c-0.624,2.604-0.938,5.243-0.938,7.882c0,4.835,1.042,9.641,3.036,14.06
				c-1.306,3.07-1.986,6.335-1.986,9.602c0,7.147,3.042,13.845,8.288,18.538c-0.004,0.158-0.006,0.319-0.006,0.485
				c0,8.186,4.125,15.845,10.78,20.454c0.743,13.086,11.625,23.503,24.895,23.503c13.749,0,24.935-11.183,24.935-24.931
				c0-0.581-0.021-1.157-0.061-1.734c4.333-1.065,8.315-3.297,11.514-6.436c6.43,4.643,14.118,7.144,22.215,7.144
				c18.583,0,34.045-13.183,37.413-30.913c22.014-1.412,40.87-16.853,46.58-38.145c10.271-4.643,18.796-12.563,24.212-22.584
				C354.701,19.117,353.633,15.533,350.763,13.981z"/>
		</g>
	</g>
	<g>
		<g>
			<path fill="#33363A" d="M251.859,30.684c-4.327-7.663-11.377-13.183-19.849-15.537c-10.215-2.854-20.927-1.55-30.165,3.666
				c-9.231,5.209-15.885,13.707-18.734,23.923c-7.118,25.582,7.894,52.182,33.465,59.306c0.532,0.146,1.064,0.215,1.59,0.215
				c2.585,0,4.96-1.711,5.688-4.324c0.876-3.143-0.962-6.4-4.106-7.278c-19.296-5.374-30.623-25.446-25.252-44.746
				c2.001-7.178,6.675-13.148,13.162-16.807c6.482-3.662,14.004-4.582,21.182-2.573c5.434,1.512,9.956,5.051,12.729,9.963
				c2.774,4.917,3.469,10.613,1.958,16.045c-2.331,8.351-11.011,13.248-19.364,10.925c-2.931-0.816-5.368-2.724-6.864-5.371
				c-1.493-2.65-1.868-5.723-1.048-8.651c0.876-3.146-0.962-6.405-4.104-7.282c-3.141-0.869-6.403,0.962-7.279,4.104
				c-1.665,5.974-0.906,12.237,2.141,17.634c3.043,5.401,8.013,9.29,13.985,10.952c14.615,4.074,29.83-4.512,33.917-19.138
				C257.269,47.233,256.185,38.347,251.859,30.684z"/>
		</g>
	</g>
	<g>
		<g>
			<path fill="#33363A" d="M201.502,133.678H171.22c-2.708,0-4.901,2.196-4.901,4.9v78.658c0,2.71,2.192,4.901,4.901,4.901h30.282
				c2.713,0,4.906-2.191,4.906-4.901v-78.658C206.408,135.875,204.215,133.678,201.502,133.678z"/>
		</g>
	</g>
	<g>
		<g>
			<path fill="#33363A" d="M201.502,127.77H171.22c-5.96,0-10.81,4.851-10.81,10.809v78.658c0,5.96,4.849,10.81,10.81,10.81h30.282
				c5.963,0,10.814-4.85,10.814-10.81v-78.658C212.316,132.62,207.465,127.77,201.502,127.77z M200.499,216.23h-28.271v-76.644
				h28.271V216.23z"/>
		</g>
	</g>
	<g>
		<g>
			<path fill="#33363A" d="M216.455,126.742h-60.176c-3.263,0-5.908,2.646-5.908,5.909c0,3.262,2.645,5.909,5.908,5.909h60.176
				c3.264,0,5.909-2.647,5.909-5.909C222.363,129.389,219.718,126.742,216.455,126.742z"/>
		</g>
	</g>
	<g>
		<g>
			<path fill="#E21A32" d="M202.826,157.428h-32.92c-1.089,0-1.97,0.88-1.97,1.969s0.881,1.97,1.97,1.97h32.92
				c1.088,0,1.969-0.881,1.969-1.97S203.914,157.428,202.826,157.428z"/>
		</g>
	</g>
	<g>
		<g>
			<path fill="#E21A32" d="M202.826,165.657h-32.92c-1.089,0-1.97,0.88-1.97,1.969c0,1.088,0.881,1.97,1.97,1.97h32.92
				c1.088,0,1.969-0.881,1.969-1.97C204.795,166.537,203.914,165.657,202.826,165.657z"/>
		</g>
	</g>
	<g>
		<g>
			<path fill="#E21A32" d="M202.826,173.884h-32.92c-1.089,0-1.97,0.881-1.97,1.969c0,1.089,0.881,1.97,1.97,1.97h32.92
				c1.088,0,1.969-0.88,1.969-1.97C204.795,174.766,203.914,173.884,202.826,173.884z"/>
		</g>
	</g>
	<g>
		<g>
			<path fill="#33363A" d="M261.229,158.405h-18.448c-1.649,0-2.988,1.339-2.988,2.985v47.916c0,1.646,1.339,2.984,2.988,2.984
				h18.448c1.646,0,2.984-1.338,2.984-2.984V161.39C264.214,159.744,262.876,158.405,261.229,158.405z"/>
		</g>
	</g>
	<g>
		<g>
			<path fill="#33363A" d="M261.229,152.496h-18.448c-4.907,0-8.897,3.99-8.897,8.894v47.916c0,4.904,3.991,8.894,8.897,8.894
				h18.448c4.901,0,8.894-3.99,8.894-8.894V161.39C270.123,156.486,266.131,152.496,261.229,152.496z M258.304,206.383h-12.602
				v-42.069h12.602V206.383z"/>
		</g>
	</g>
	<g>
		<g>
			<path fill="#33363A" d="M270.338,151.869h-36.662c-3.263,0-5.908,2.647-5.908,5.909c0,3.262,2.645,5.909,5.908,5.909h36.662
				c3.263,0,5.909-2.647,5.909-5.909C276.247,154.517,273.601,151.869,270.338,151.869z"/>
		</g>
	</g>
	<g>
		<g>
			<path fill="#E21A32" d="M262.029,172.103h-20.052c-1.087,0-1.969,0.881-1.969,1.97c0,1.089,0.882,1.969,1.969,1.969h20.052
				c1.092,0,1.969-0.88,1.969-1.969C263.998,172.984,263.121,172.103,262.029,172.103z"/>
		</g>
	</g>
	<g>
		<g>
			<path fill="#E21A32" d="M262.029,182.125h-20.052c-1.087,0-1.969,0.881-1.969,1.97c0,1.088,0.882,1.969,1.969,1.969h20.052
				c1.092,0,1.969-0.881,1.969-1.969C263.998,183.005,263.121,182.125,262.029,182.125z"/>
		</g>
	</g>
	<g>
		<g>
			<path fill="#33363A" d="M310.045,158.405h-18.449c-1.646,0-2.984,1.339-2.984,2.985v47.916c0,1.646,1.339,2.984,2.984,2.984
				h18.449c1.646,0,2.984-1.338,2.984-2.984V161.39C313.029,159.744,311.691,158.405,310.045,158.405z"/>
		</g>
	</g>
	<g>
		<g>
			<path fill="#33363A" d="M310.045,152.496h-18.449c-4.901,0-8.894,3.99-8.894,8.894v47.916c0,4.904,3.992,8.894,8.894,8.894
				h18.449c4.904,0,8.894-3.99,8.894-8.894V161.39C318.938,156.486,314.949,152.496,310.045,152.496z M307.121,206.383H294.52
				v-42.069h12.602V206.383z"/>
		</g>
	</g>
	<g>
		<g>
			<path fill="#33363A" d="M319.154,151.869h-36.66c-3.262,0-5.908,2.647-5.908,5.909c0,3.262,2.646,5.909,5.908,5.909h36.66
				c3.263,0,5.909-2.647,5.909-5.909C325.063,154.517,322.417,151.869,319.154,151.869z"/>
		</g>
	</g>
	<g>
		<g>
			<path fill="#E21A32" d="M310.845,172.103h-20.05c-1.093,0-1.97,0.881-1.97,1.97c0,1.089,0.877,1.969,1.97,1.969h20.05
				c1.092,0,1.969-0.88,1.969-1.969C312.813,172.984,311.937,172.103,310.845,172.103z"/>
		</g>
	</g>
	<g>
		<g>
			<path fill="#E21A32" d="M310.845,182.125h-20.05c-1.093,0-1.97,0.881-1.97,1.97c0,1.088,0.877,1.969,1.97,1.969h20.05
				c1.092,0,1.969-0.881,1.969-1.969C312.813,183.005,311.937,182.125,310.845,182.125z"/>
		</g>
	</g>
	<g>
		<g>
			<path fill="#33363A" d="M358.859,158.405h-18.448c-1.646,0-2.985,1.339-2.985,2.985v47.916c0,1.646,1.34,2.984,2.985,2.984
				h18.448c1.655,0,2.986-1.338,2.986-2.984V161.39C361.846,159.744,360.515,158.405,358.859,158.405z"/>
		</g>
	</g>
	<g>
		<g>
			<path fill="#33363A" d="M358.859,152.496h-18.448c-4.9,0-8.895,3.99-8.895,8.894v47.916c0,4.904,3.994,8.894,8.895,8.894h18.448
				c4.907,0,8.896-3.99,8.896-8.894V161.39C367.755,156.486,363.767,152.496,358.859,152.496z M355.938,206.383h-12.602v-42.069
				h12.602V206.383z"/>
		</g>
	</g>
	<g>
		<g>
			<path fill="#33363A" d="M367.971,151.869h-36.66c-3.264,0-5.909,2.647-5.909,5.909c0,3.262,2.646,5.909,5.909,5.909h36.66
				c3.261,0,5.908-2.647,5.908-5.909C373.879,154.517,371.231,151.869,367.971,151.869z"/>
		</g>
	</g>
	<g>
		<g>
			<path fill="#E21A32" d="M359.66,172.103h-20.05c-1.084,0-1.97,0.881-1.97,1.97c0,1.089,0.886,1.969,1.97,1.969h20.05
				c1.093,0,1.969-0.88,1.969-1.969C361.629,172.984,360.753,172.103,359.66,172.103z"/>
		</g>
	</g>
	<g>
		<g>
			<path fill="#E21A32" d="M359.66,182.125h-20.05c-1.084,0-1.97,0.881-1.97,1.97c0,1.088,0.886,1.969,1.97,1.969h20.05
				c1.093,0,1.969-0.881,1.969-1.969C361.629,183.005,360.753,182.125,359.66,182.125z"/>
		</g>
	</g>
	<g>
		<g>
			<path fill="#818F91" d="M375.687,212.099H149.128c-3.173,0-5.747,2.577-5.747,5.75v88.895c0,3.178,2.574,5.752,5.747,5.752
				h226.559c3.178,0,5.746-2.574,5.746-5.752v-88.895C381.433,214.675,378.864,212.099,375.687,212.099z"/>
		</g>
	</g>
	<g>
		<g>
			<path fill="#6A797C" d="M375.687,242.572H149.128c-3.173,0-5.747,2.574-5.747,5.746v88.899c0,3.178,2.574,5.752,5.747,5.752
				h226.559c3.178,0,5.746-2.574,5.746-5.752v-88.899C381.433,245.146,378.864,242.572,375.687,242.572z"/>
		</g>
	</g>
	<g>
		<g>
			<path fill="#526163" d="M375.687,265.446H149.128c-3.173,0-5.747,2.572-5.747,5.747v88.898c0,3.178,2.574,5.751,5.747,5.751
				h226.559c3.178,0,5.746-2.573,5.746-5.751v-88.898C381.433,268.019,378.864,265.446,375.687,265.446z"/>
		</g>
	</g>
	<g>
		<g>
			<path fill="#33363A" d="M375.687,206.19H149.128c-6.426,0-11.656,5.231-11.656,11.659v88.895c0,6.429,5.229,11.66,11.656,11.66
				h226.559c6.428,0,11.655-5.231,11.655-11.66v-88.895C387.342,211.421,382.114,206.19,375.687,206.19z M375.524,306.586
				l-226.235,0.158l-0.161-88.737l226.396-0.158V306.586z"/>
		</g>
	</g>
	<g>
		<g>
			<polygon fill="#33363A" points="17.688,265.446 62.391,403.375 443.105,403.375 484.351,302.898 			"/>
		</g>
	</g>
	<g>
		<g>
			<polygon fill="#B2104E" points="40.041,336.379 55.447,372.093 451.897,372.093 471.408,336.379 			"/>
		</g>
	</g>
	<g>
		<g>
			<path fill="#33363A" d="M489.381,299.804c-0.983-1.607-2.682-2.645-4.563-2.795L18.161,259.557
				c-1.99-0.15-3.886,0.677-5.109,2.228c-1.225,1.546-1.594,3.604-0.984,5.484l44.704,137.93c0.788,2.437,3.058,4.085,5.619,4.085
				h380.715c2.392,0,4.554-1.445,5.462-3.664l41.245-100.479C490.527,303.398,490.37,301.413,489.381,299.804z M439.143,397.467
				H66.688l-40.65-125.424L475.81,308.14L439.143,397.467z"/>
		</g>
	</g>
	<g>
		<g>
			<path fill="#33363A" d="M488.304,403.964H13.733c-3.264,0-5.909,2.647-5.909,5.91c0,3.261,2.645,5.906,5.909,5.906h474.571
				c3.268,0,5.909-2.646,5.909-5.906C494.213,406.611,491.571,403.964,488.304,403.964z"/>
		</g>
	</g>
	<g>
		<g>
			<path fill="#33363A" d="M244.148,435.39H61.875c-3.264,0-5.909,2.646-5.909,5.907c0,3.263,2.645,5.909,5.909,5.909h182.273
				c3.263,0,5.909-2.646,5.909-5.909C250.057,438.035,247.411,435.39,244.148,435.39z"/>
		</g>
	</g>
	<g>
		<g>
			<path fill="#33363A" d="M290.657,435.39h-21.372c-3.263,0-5.909,2.646-5.909,5.907c0,3.263,2.646,5.909,5.909,5.909h21.372
				c3.263,0,5.908-2.646,5.908-5.909C296.565,438.035,293.92,435.39,290.657,435.39z"/>
		</g>
	</g>
	<g>
		<g>
			<path fill="#33363A" d="M337.164,435.39h-21.365c-3.265,0-5.909,2.646-5.909,5.907c0,3.263,2.645,5.909,5.909,5.909h21.365
				c3.267,0,5.909-2.646,5.909-5.909C343.073,438.035,340.431,435.39,337.164,435.39z"/>
		</g>
	</g>
	<g>
		<g>
			<path fill="#33363A" d="M358.561,435.39h-0.67c-3.266,0-5.908,2.646-5.908,5.907c0,3.263,2.643,5.909,5.908,5.909h0.67
				c3.263,0,5.907-2.646,5.907-5.909C364.468,438.035,361.823,435.39,358.561,435.39z"/>
		</g>
	</g>
	<g>
		<g>
			<path fill="#33363A" d="M394.396,435.39h-0.668c-3.262,0-5.909,2.646-5.909,5.907c0,3.263,2.647,5.909,5.909,5.909h0.668
				c3.266,0,5.909-2.646,5.909-5.909C400.306,438.035,397.662,435.39,394.396,435.39z"/>
		</g>
	</g>
	<g>
		<g>
			<path fill="#33363A" d="M442.758,435.39h-21.373c-3.262,0-5.908,2.646-5.908,5.907c0,3.263,2.646,5.909,5.908,5.909h21.373
				c3.262,0,5.908-2.646,5.908-5.909C448.666,438.035,446.02,435.39,442.758,435.39z"/>
		</g>
	</g>
	<g>
		<g>
			<path fill="#33363A" d="M185.738,470.753h-21.37c-3.264,0-5.908,2.646-5.908,5.907c0,3.263,2.644,5.909,5.908,5.909h21.37
				c3.264,0,5.909-2.646,5.909-5.909C191.647,473.398,189.002,470.753,185.738,470.753z"/>
		</g>
	</g>
	<g>
		<g>
			<path fill="#33363A" d="M337.843,470.753h-21.375c-3.26,0-5.908,2.646-5.908,5.907c0,3.263,2.648,5.909,5.908,5.909h21.375
				c3.26,0,5.907-2.646,5.907-5.909C343.75,473.398,341.103,470.753,337.843,470.753z"/>
		</g>
	</g>
	<g>
		<g>
			<path fill="#33363A" d="M232.25,470.753h-21.37c-3.264,0-5.909,2.646-5.909,5.907c0,3.263,2.645,5.909,5.909,5.909h21.37
				c3.263,0,5.907-2.646,5.907-5.909C238.157,473.398,235.513,470.753,232.25,470.753z"/>
		</g>
	</g>
	<g>
		<g>
			<path fill="#33363A" d="M253.641,470.753h-0.67c-3.263,0-5.908,2.646-5.908,5.907c0,3.263,2.646,5.909,5.908,5.909h0.67
				c3.264,0,5.912-2.646,5.912-5.909C259.553,473.398,256.904,470.753,253.641,470.753z"/>
		</g>
	</g>
	<g>
		<g>
			<path fill="#33363A" d="M289.479,470.753h-0.661c-3.266,0-5.91,2.646-5.91,5.907c0,3.263,2.645,5.909,5.91,5.909h0.661
				c3.265,0,5.909-2.646,5.909-5.909C295.389,473.398,292.744,470.753,289.479,470.753z"/>
		</g>
	</g>
	<g>
		<g>
			<circle fill="#92E0FF" cx="91.876" cy="353.252" r="9.841"/>
		</g>
	</g>
	<g>
		<g>
			<path fill="#68B6DD" d="M91.876,343.411c-5.436,0-9.84,4.405-9.84,9.841h19.676C101.713,347.816,97.308,343.411,91.876,343.411z"
				/>
		</g>
	</g>
	<g>
		<g>
			<path fill="#33363A" d="M91.876,341.443c-6.512,0-11.81,5.295-11.81,11.809s5.297,11.81,11.81,11.81
				c6.511,0,11.806-5.296,11.806-11.81S98.387,341.443,91.876,341.443z M91.876,361.123c-4.338,0-7.87-3.531-7.87-7.871
				s3.532-7.871,7.87-7.871c4.337,0,7.867,3.531,7.867,7.871S96.213,361.123,91.876,361.123z"/>
		</g>
	</g>
	<g>
		<g>
			<circle fill="#92E0FF" cx="146.038" cy="353.252" r="9.841"/>
		</g>
	</g>
	<g>
		<g>
			<path fill="#68B6DD" d="M146.038,343.411c-5.434,0-9.838,4.405-9.838,9.841h19.676
				C155.876,347.816,151.472,343.411,146.038,343.411z"/>
		</g>
	</g>
	<g>
		<g>
			<path fill="#33363A" d="M146.038,341.443c-6.511,0-11.808,5.295-11.808,11.809s5.297,11.81,11.808,11.81
				c6.512,0,11.808-5.296,11.808-11.81S152.55,341.443,146.038,341.443z M146.038,361.123c-4.337,0-7.869-3.531-7.869-7.871
				s3.532-7.871,7.869-7.871c4.338,0,7.868,3.531,7.868,7.871S150.376,361.123,146.038,361.123z"/>
		</g>
	</g>
	<g>
		<g>
			<path fill="#92E0FF" d="M200.202,343.411c-5.436,0-9.84,4.405-9.84,9.841s4.405,9.841,9.84,9.841
				c5.432,0,9.836-4.405,9.836-9.841S205.633,343.411,200.202,343.411z"/>
		</g>
	</g>
	<g>
		<g>
			<path fill="#68B6DD" d="M200.202,343.411c-5.436,0-9.84,4.405-9.84,9.841h19.676
				C210.038,347.816,205.633,343.411,200.202,343.411z"/>
		</g>
	</g>
	<g>
		<g>
			<path fill="#33363A" d="M200.202,341.443c-6.513,0-11.81,5.295-11.81,11.809s5.296,11.81,11.81,11.81
				c6.512,0,11.805-5.296,11.805-11.81S206.713,341.443,200.202,341.443z M200.202,361.123c-4.34,0-7.871-3.531-7.871-7.871
				s3.531-7.871,7.871-7.871c4.338,0,7.866,3.531,7.866,7.871S204.54,361.123,200.202,361.123z"/>
		</g>
	</g>
	<g>
		<g>
			<path fill="#92E0FF" d="M254.365,343.411c-5.437,0-9.84,4.405-9.84,9.841s4.403,9.841,9.84,9.841
				c5.433,0,9.833-4.405,9.833-9.841S259.798,343.411,254.365,343.411z"/>
		</g>
	</g>
	<g>
		<g>
			<path fill="#68B6DD" d="M254.365,343.411c-5.437,0-9.84,4.405-9.84,9.841h19.673
				C264.198,347.816,259.798,343.411,254.365,343.411z"/>
		</g>
	</g>
	<g>
		<g>
			<path fill="#33363A" d="M254.365,341.443c-6.513,0-11.81,5.295-11.81,11.809s5.296,11.81,11.81,11.81
				c6.51,0,11.803-5.296,11.803-11.81S260.875,341.443,254.365,341.443z M254.365,361.123c-4.339,0-7.871-3.531-7.871-7.871
				s3.532-7.871,7.871-7.871c4.335,0,7.864,3.531,7.864,7.871S258.7,361.123,254.365,361.123z"/>
		</g>
	</g>
	<g>
		<g>
			<path fill="#92E0FF" d="M308.529,343.411c-5.44,0-9.842,4.405-9.842,9.841s4.401,9.841,9.842,9.841
				c5.431,0,9.832-4.405,9.832-9.841S313.96,343.411,308.529,343.411z"/>
		</g>
	</g>
	<g>
		<g>
			<path fill="#68B6DD" d="M308.529,343.411c-5.44,0-9.842,4.405-9.842,9.841h19.674
				C318.361,347.816,313.96,343.411,308.529,343.411z"/>
		</g>
	</g>
	<g>
		<g>
			<path fill="#33363A" d="M308.529,341.443c-6.517,0-11.81,5.295-11.81,11.809s5.293,11.81,11.81,11.81
				c6.509,0,11.801-5.296,11.801-11.81S315.038,341.443,308.529,341.443z M308.529,361.123c-4.339,0-7.87-3.531-7.87-7.871
				s3.531-7.871,7.87-7.871c4.336,0,7.862,3.531,7.862,7.871S312.865,361.123,308.529,361.123z"/>
		</g>
	</g>
	<g>
		<g>
			<path fill="#92E0FF" d="M362.691,343.411c-5.438,0-9.839,4.405-9.839,9.841s4.4,9.841,9.839,9.841
				c5.434,0,9.833-4.405,9.833-9.841S368.125,343.411,362.691,343.411z"/>
		</g>
	</g>
	<g>
		<g>
			<path fill="#68B6DD" d="M362.691,343.411c-5.438,0-9.839,4.405-9.839,9.841h19.672
				C372.524,347.816,368.125,343.411,362.691,343.411z"/>
		</g>
	</g>
	<g>
		<g>
			<path fill="#33363A" d="M362.691,341.443c-6.516,0-11.809,5.295-11.809,11.809s5.293,11.81,11.809,11.81
				c6.509,0,11.802-5.296,11.802-11.81S369.2,341.443,362.691,341.443z M362.691,361.123c-4.338,0-7.87-3.531-7.87-7.871
				s3.532-7.871,7.87-7.871c4.336,0,7.862,3.531,7.862,7.871S367.027,361.123,362.691,361.123z"/>
		</g>
	</g>
	<g>
		<g>
			<path fill="#92E0FF" d="M416.854,343.411c-5.438,0-9.84,4.405-9.84,9.841s4.401,9.841,9.84,9.841
				c5.433,0,9.834-4.405,9.834-9.841S422.286,343.411,416.854,343.411z"/>
		</g>
	</g>
	<g>
		<g>
			<path fill="#68B6DD" d="M416.854,343.411c-5.438,0-9.84,4.405-9.84,9.841h19.674
				C426.688,347.816,422.286,343.411,416.854,343.411z"/>
		</g>
	</g>
	<g>
		<g>
			<path fill="#33363A" d="M416.854,341.443c-6.516,0-11.81,5.295-11.81,11.809s5.294,11.81,11.81,11.81
				c6.51,0,11.803-5.296,11.803-11.81S423.363,341.443,416.854,341.443z M416.854,361.123c-4.339,0-7.871-3.531-7.871-7.871
				s3.532-7.871,7.871-7.871c4.335,0,7.864,3.531,7.864,7.871S421.188,361.123,416.854,361.123z"/>
		</g>
	</g>
	<g>
		<g>
			<path fill="#33363A" d="M202.826,236.665h-56.788c-3.264,0-5.908,2.646-5.908,5.908s2.645,5.909,5.908,5.909h56.788
				c3.264,0,5.909-2.647,5.909-5.909S206.089,236.665,202.826,236.665z"/>
		</g>
	</g>
	<g>
		<g>
			<path fill="#33363A" d="M240.247,236.665h-6.232c-3.265,0-5.909,2.646-5.909,5.908s2.644,5.909,5.909,5.909h6.232
				c3.265,0,5.908-2.647,5.908-5.909S243.512,236.665,240.247,236.665z"/>
		</g>
	</g>
	<g>
		<g>
			<path fill="#33363A" d="M272.399,236.665h-6.231c-3.262,0-5.908,2.646-5.908,5.908s2.646,5.909,5.908,5.909h6.231
				c3.268,0,5.908-2.647,5.908-5.909S275.667,236.665,272.399,236.665z"/>
		</g>
	</g>
	<g>
		<g>
			<path fill="#33363A" d="M304.559,236.665h-6.231c-3.266,0-5.909,2.646-5.909,5.908s2.644,5.909,5.909,5.909h6.231
				c3.264,0,5.909-2.647,5.909-5.909S307.822,236.665,304.559,236.665z"/>
		</g>
	</g>
	<g>
		<g>
			<path fill="#33363A" d="M336.71,236.665h-6.23c-3.264,0-5.911,2.646-5.911,5.908s2.647,5.909,5.911,5.909h6.23
				c3.267,0,5.908-2.647,5.908-5.909S339.977,236.665,336.71,236.665z"/>
		</g>
	</g>
</g>
</svg>
